# xmcd CD database file
#
# Track frame offsets:
#	187
#	34357
#	67095
#	87632
#	119505
#	140822
#
# Disc length: 2146 seconds
#
# Revision: 1
# Processed by: cddbd v1.5.1PL0 Copyright (c) Steve Scherf et al.
# Submitted via: CDex 1.51
#
DISCID=61086006
DTITLE=YASUKO AGAWA - DANCING LOVERS' NITE
DYEAR=1989
DGENRE=Jazz
TTITLE0=LOWDOWN
TTITLE1=I'M GONNA MAKE YOU LOVE ME
TTITLE2=Ooo BABY BABY
TTITLE3=YOU BRING THE SUN OUT
TTITLE4=STOP! IN THE NAME OF LOVE
TTITLE5=SANTA BABY
EXTD=YEAR: 1989
EXTT0=
EXTT1=
EXTT2=
EXTT3=
EXTT4=
EXTT5=
PLAYORDER=
